<svg version="1.1" width="343" height="281" viewBox="-1 -1 343 281" xmlns="http://www.w3.org/2000/svg" xmlns:xlink="http://www.w3.org/1999/xlink">
  <defs>
    <linearGradient id="grad_1" y2="1">
      <stop offset="0" stop-color="#000000" stop-opacity="1"/>
      <stop offset="1" stop-color="#FF0000" stop-opacity="1"/>
    </linearGradient>
    <linearGradient id="grad_2" y2="1">
      <stop offset="0" stop-color="#000000" stop-opacity="1"/>
      <stop offset="1" stop-color="#FF0000" stop-opacity="1"/>
    </linearGradient>
    <linearGradient id="grad_3" y2="1">
      <stop offset="0" stop-color="#000000" stop-opacity="1"/>
      <stop offset="1" stop-color="#CB0000" stop-opacity="1"/>
    </linearGradient>
    <linearGradient id="grad_4" y2="1">
      <stop offset="0" stop-color="#000000" stop-opacity="1"/>
      <stop offset="1" stop-color="#CB0000" stop-opacity="1"/>
    </linearGradient>
  </defs>
  <!-- Exported by Scratch - http://scratch.mit.edu/ -->
  <path id="ID0.046944897156208754" fill="url(#grad_1)" stroke="none" stroke-linecap="round" d="M 151.650 111.150 C 152.441 111.352 161.598 136.459 163.950 149.650 C 167.080 167.083 168.352 184.853 168 202.500 C 167.582 223.451 166.254 244.843 161.500 265.450 C 158.256 279.480 145.437 307.300 144.250 305.350 C 143.063 303.400 150.640 268.471 152.600 250.250 C 154.341 233.400 154.944 216.391 155.350 200.150 C 155.786 182.756 155.907 165.277 155.100 147.900 C 154.536 135.731 150.859 110.948 151.650 111.150 Z " transform="matrix(4.059523582458496, 0, 0, 1.4163089990615845, -339.5, -153.45)"/>
  <path id="ID0.046944897156208754" fill="url(#grad_2)" stroke="none" stroke-linecap="round" d="M 151.650 111.150 C 152.441 111.352 161.598 136.459 163.950 149.650 C 167.080 167.083 168.352 184.853 168 202.500 C 167.582 223.451 166.254 244.843 161.500 265.450 C 158.256 279.480 145.437 307.300 144.250 305.350 C 143.063 303.400 150.640 268.471 152.600 250.250 C 154.341 233.400 154.944 216.391 155.350 200.150 C 155.786 182.756 155.907 165.277 155.100 147.900 C 154.536 135.731 150.859 110.948 151.650 111.150 Z " transform="matrix(-4.059523582458496, 0, 0, 1.4163089990615845, 683.05, -153.75)"/>
  <path id="ID0.44666126603260636" fill="url(#grad_3)" stroke="none" stroke-linecap="round" d="M 83.700 146.500 L 343.150 46 L 346.500 226.500 L 126.450 264.500 L 83.700 146.500 Z " transform="matrix(0.5030425786972046, 0, 0, 1, -2.1, -45)"/>
  <path id="ID0.44666126603260636" fill="url(#grad_4)" stroke="none" stroke-linecap="round" d="M 83.700 146.500 L 343.150 46 L 346.500 226.500 L 126.450 264.500 L 83.700 146.500 Z " transform="matrix(-0.5030425786972046, 0, 0, 1, 344.3, -45.5)"/>
  <path id="ID0.6804642989300191" fill="#E5E5E5" stroke="none" stroke-linecap="round" d="M 222 9 C 249.422 9.519 265.934 48.134 277.700 74 C 280.879 133.911 277.955 147.656 273.150 184 C 271.646 195.379 266.822 207.227 259 216 C 249.906 225.693 238.123 237.167 224.600 237 C 209.523 236.810 193.919 227.054 185.300 214.500 C 173.467 197.684 169.683 175.941 167.500 155 C 164.635 127.471 162.454 91.120 170.550 72 C 181.618 47.340 195.847 8.519 222 9 Z " transform="matrix(1.5259090662002563, 0, 0, 1, -169.25, -3.5)"/>
  <path id="ID0.8756990414112806" fill="#E5E5E5" stroke="none" d="M 152.500 54.500 L 309.500 54.500 L 349.650 127 L 105.600 126 L 152.500 54.500 Z " transform="matrix(0.6802381277084351, 0, 0, 1, 17.15, -54.5)"/>
</svg>