<svg version="1.1" width="343" height="413" viewBox="-1 -1 343 413" xmlns="http://www.w3.org/2000/svg" xmlns:xlink="http://www.w3.org/1999/xlink">
  <defs>
    <linearGradient id="grad_1" y2="1">
      <stop offset="0" stop-color="#000000" stop-opacity="1"/>
      <stop offset="1" stop-color="#FF0000" stop-opacity="1"/>
    </linearGradient>
    <linearGradient id="grad_2" y2="1">
      <stop offset="0" stop-color="#000000" stop-opacity="1"/>
      <stop offset="1" stop-color="#FF0000" stop-opacity="1"/>
    </linearGradient>
    <linearGradient id="grad_3" y2="1">
      <stop offset="0" stop-color="#000000" stop-opacity="1"/>
      <stop offset="1" stop-color="#CB0000" stop-opacity="1"/>
    </linearGradient>
    <linearGradient id="grad_4" y2="1">
      <stop offset="0" stop-color="#000000" stop-opacity="1"/>
      <stop offset="1" stop-color="#CB0000" stop-opacity="1"/>
    </linearGradient>
  </defs>
  <!-- Exported by Scratch - http://scratch.mit.edu/ -->
  <path id="ID0.046944897156208754" fill="url(#grad_1)" stroke="none" stroke-linecap="round" d="M 151.650 111.150 C 152.441 111.352 161.598 136.459 163.950 149.650 C 167.080 167.083 168.352 184.853 168 202.500 C 167.582 223.451 166.254 244.843 161.500 265.450 C 158.256 279.480 145.437 307.300 144.250 305.350 C 143.063 303.400 150.640 268.471 152.600 250.250 C 154.341 233.400 154.944 216.391 155.350 200.150 C 155.786 182.756 155.907 165.277 155.100 147.900 C 154.536 135.731 150.859 110.948 151.650 111.150 Z " transform="matrix(4.059523582458496, 0, 0, 1.4163089990615845, -339.5, -64.45)"/>
  <path id="ID0.046944897156208754" fill="url(#grad_2)" stroke="none" stroke-linecap="round" d="M 151.650 111.150 C 152.441 111.352 161.598 136.459 163.950 149.650 C 167.080 167.083 168.352 184.853 168 202.500 C 167.582 223.451 166.254 244.843 161.500 265.450 C 158.256 279.480 145.437 307.300 144.250 305.350 C 143.063 303.400 150.640 268.471 152.600 250.250 C 154.341 233.400 154.944 216.391 155.350 200.150 C 155.786 182.756 155.907 165.277 155.100 147.900 C 154.536 135.731 150.859 110.948 151.650 111.150 Z " transform="matrix(-4.059523582458496, 0, 0, 1.4163089990615845, 683.05, -64.75)"/>
  <path id="ID0.44666126603260636" fill="url(#grad_3)" stroke="none" stroke-linecap="round" d="M 83.700 146.500 L 343.150 46 L 346.500 226.500 L 126.450 264.500 L 83.700 146.500 Z " transform="matrix(0.5030425786972046, 0, 0, 1, -2.1, 44)"/>
  <path id="ID0.44666126603260636" fill="url(#grad_4)" stroke="none" stroke-linecap="round" d="M 83.700 146.500 L 343.150 46 L 346.500 226.500 L 126.450 264.500 L 83.700 146.500 Z " transform="matrix(-0.5030425786972046, 0, 0, 1, 344.3, 43.5)"/>
  <g id="ID0.5258475639857352" transform="matrix(1, 0, 0, 1, -52, 44)">
    <path id="ID0.6804642989300191" fill="#E5E5E5" stroke="none" stroke-linecap="round" d="M 222.350 10.500 C 230.700 34.996 226.501 68.518 228.250 97.500 C 229.294 114.789 232.280 132.146 232.150 149.500 C 231.061 178.726 239.588 215.531 224.600 237 C 216.870 248.071 193.919 227.054 185.300 214.500 C 173.467 197.684 169.612 175.570 167.500 155 C 164.931 129.892 164.631 104.087 169.900 79.500 C 173.714 62.045 187.326 34.268 194.800 32.500 C 200.893 30.586 198.320 71.422 199.400 71.500 C 200.480 71.578 199.895 44.266 204.650 32.500 C 208.187 23.794 219.642 2.552 222.350 10.500 Z " transform="matrix(1.5259090662002563, 0, 0, 1, -117.25, 41.5)"/>
    <path id="ID0.8756990414112806" fill="#E5E5E5" stroke="none" d="M 185 26.900 L 227.650 26.900 L 224.700 132.050 L 139.450 144.500 L 185 26.900 Z " transform="matrix(0.6802381277084351, 0, 0, 1.6068965196609497, 69.15, -86.25)"/>
  </g>
  <g id="ID0.5258475639857352" transform="matrix(-1, 0, 0, 1, 390.15, 43.75)">
    <path id="ID0.6804642989300191" fill="#E5E5E5" stroke="none" stroke-linecap="round" d="M 222.350 10.500 C 230.700 34.996 226.501 68.518 228.250 97.500 C 229.294 114.789 232.280 132.146 232.150 149.500 C 231.061 178.726 239.588 215.531 224.600 237 C 216.870 248.071 193.919 227.054 185.300 214.500 C 173.467 197.684 169.612 175.570 167.500 155 C 164.931 129.892 164.631 104.087 169.900 79.500 C 173.714 62.045 187.326 34.268 194.800 32.500 C 200.893 30.586 198.320 71.422 199.400 71.500 C 200.480 71.578 199.895 44.266 204.650 32.500 C 208.187 23.794 219.642 2.552 222.350 10.500 Z " transform="matrix(1.5259090662002563, 0, 0, 1, -117.25, 41.5)"/>
    <path id="ID0.8756990414112806" fill="#E5E5E5" stroke="none" d="M 185 26.900 L 227.650 26.900 L 224.700 132.050 L 139.450 144.500 L 185 26.900 Z " transform="matrix(0.6802381277084351, 0, 0, 1.6068965196609497, 69.15, -86.25)"/>
  </g>
</svg>