<svg version="1.1" width="169" height="51" xmlns="http://www.w3.org/2000/svg" xmlns:xlink="http://www.w3.org/1999/xlink">
  <defs>
    <linearGradient id="grad_1" x2="1">
      <stop offset="0" stop-color="#FF0000" stop-opacity="1"/>
      <stop offset="1" stop-color="#FF0000" stop-opacity="0"/>
    </linearGradient>
  </defs>
  <!-- Exported by Scratch - http://scratch.mit.edu/ -->
  <path id="ID0.25177182303741574" fill="none" stroke="url(#grad_1)" stroke-width="2" stroke-linecap="round" d="M 303 168 L 443 168 " transform="matrix(0.5580986142158508, 0, 0, 1, -79.55, -155)"/>
  <path id="ID0.8552132230252028" fill="#666666" stroke="#000000" stroke-width="2" d="M 248.500 163.500 L 286.250 163.500 L 286.250 171.250 L 248.500 171.250 L 248.500 163.500 Z " transform="matrix(1.4339622259140015, 0, 0, 0.7835051417350769, -320.1, -117.8)"/>
  <path id="ID0.6863454296253622" fill="#FFCCCC" stroke="#000000" stroke-width="2" d="M 263.950 171.400 L 268.150 167.150 L 270.750 170.500 L 270.750 191.500 L 263.250 191.500 L 263.950 171.400 Z " transform="matrix(0.6554728746414185, 0.7552187442779541, -0.8780851364135742, 0.7621116042137146, 34.05, -313.55)"/>
  <path id="ID0.05429223272949457" fill="#00CC44" stroke="#00CC44" stroke-width="2" stroke-linecap="round" d="M 240.250 166.250 C 245.561 166.250 250.373 168.407 253.858 171.892 C 257.343 175.377 259.500 180.189 259.500 185.500 C 259.500 190.811 257.343 195.623 253.858 199.108 C 250.373 202.593 245.561 204.750 240.250 204.750 C 234.939 204.750 230.337 202.334 226.642 199.108 C 222.733 195.698 218.195 191.027 218.100 185.750 C 218.195 180.358 222.656 175.484 226.642 171.892 C 230.285 168.608 234.939 166.250 240.250 166.250 Z " transform="matrix(1, 0, 0, 1, -213.25, -160.5)"/>
  <path id="ID0.7695426535792649" fill="#009933" stroke="#009933" stroke-width="2" stroke-linecap="round" d="M 202.700 176.600 C 205.857 176.500 206.343 181.959 207.856 184.894 C 209.012 187.127 209.396 189.755 210.750 191.875 C 212.441 194.528 218.515 199.611 217 199.500 C 214.930 199.136 206.670 194.196 202.250 190.750 C 200.693 189.538 201.353 185.387 199.500 185.500 C 195.919 185.930 192.179 192.080 191 191.875 C 189.901 191.680 192.368 186.895 193.894 184.894 C 196.371 181.637 198.877 176.500 202.700 176.600 Z " transform="matrix(1, 0, 0, 1, -173.75, -174)"/>
  <path id="ID0.7695426535792649" fill="#006622" stroke="#006622" stroke-width="2" stroke-linecap="round" d="M 193.894 184.894 C 203.574 180.398 200.329 175.062 201.850 175.150 C 203.046 175.168 205.743 181.907 204.800 184.450 C 204.236 185.971 200.754 181.814 198.950 182.900 C 196.195 184.582 191.999 189.366 194.400 191.500 C 199.184 195.746 213.820 195.708 213.650 195.750 C 213.386 195.756 197.593 195.529 191 191.875 C 188.799 190.655 192.082 186.598 193.894 184.894 Z " transform="matrix(-0.984821081161499, 0.17357243597507477, -0.17357243597507477, -0.984821081161499, 252.75, 168.3)"/>
  <path id="ID0.7695426535792649" fill="#009933" stroke="#009933" stroke-width="2" stroke-linecap="round" d="M 201.600 196.750 C 200.598 195.860 199.819 192.503 201.100 192.750 C 206.849 193.758 214.186 197.029 217 199.500 C 218.225 200.581 212.190 200.438 209.850 200 C 206.872 199.423 203.807 198.702 201.600 196.750 Z " transform="matrix(1, 0, 0, 1, -181.35, -161)"/>
  <path id="ID0.7695426535792649" fill="#006622" stroke="#006622" stroke-width="2" stroke-linecap="round" d="M 200.875 182 C 203.346 182.476 205.682 183.627 207.856 184.894 C 210.591 186.488 216.250 190.028 215.600 190.350 C 214.942 190.771 207.667 188.415 203.800 187.200 C 202.331 186.738 201.176 185.709 199.500 185.500 C 193.596 184.815 183.467 187.366 181.500 186.450 C 179.953 185.730 187.586 182.351 191 181.550 C 194.261 180.818 197.743 181.394 200.875 182 Z " transform="matrix(-0.2872161269187927, 0.9578657746315002, -0.9578657746315002, -0.2872161269187927, 273.75, -104.8)"/>
  <path id="ID0.7695426535792649" fill="#009933" stroke="#009933" stroke-width="2" stroke-linecap="round" d="M 200.875 182 C 200.811 196.542 198.980 199.122 195.350 201.500 C 192.529 202.659 186.879 198.044 186.500 196.650 C 186.181 195.471 191.921 197.375 193.750 195.750 C 196.749 193.235 199.575 186.136 199.500 185.500 C 199.425 184.864 195.427 191.798 193.350 191.750 C 190.943 191.479 187.482 188.605 187.750 186.750 C 188.004 185.020 192.141 185.566 194.250 184.850 C 196.518 183.982 200.052 179.997 200.875 182 Z " transform="matrix(1, 0, 0, 1, -183.6, -168.25)"/>
  <path id="ID0.7695426535792649" fill="#009933" stroke="#009933" stroke-width="2" stroke-linecap="round" d="M 200.875 182 C 203.346 182.476 205.927 183.278 207.856 184.894 C 211.078 187.590 217.110 194.794 216.850 195.250 C 216.110 195.363 207.935 189.490 203.800 187.200 C 202.450 186.459 201.176 185.709 199.500 185.500 C 193.596 184.815 183.467 187.366 181.500 186.450 C 179.953 185.730 187.586 182.351 191 181.550 C 194.261 180.818 197.743 181.394 200.875 182 Z " transform="matrix(-0.8117372393608093, 0.5840227603912354, -0.5840227603912354, -0.8117372393608093, 295.3, 67.6)"/>
  <path id="ID0.7695426535792649" fill="#00CC44" stroke="#00CC44" stroke-width="2" stroke-linecap="round" d="M 188.550 188.100 C 189.747 186.176 193.353 187.566 194.800 185.900 C 198.595 181.530 201.119 171.097 203.550 170.750 C 205.747 170.425 206.383 180.281 204.800 184.450 C 204.098 186.298 200.754 181.814 198.950 182.900 C 196.195 184.582 196.075 188.726 194.400 191.500 C 190.615 197.770 182.701 210.220 182.450 210.300 C 182.273 210.267 189.245 198.309 191 191.875 C 191.439 190.266 187.777 189.341 188.550 188.100 Z " transform="matrix(-0.984821081161499, 0.17357243597507477, -0.17357243597507477, -0.984821081161499, 254.35, 179.8)"/>
  <path id="ID0.5103327953256667" fill="#7F7F7F" stroke="#000000" stroke-width="2" d="M 258.800 158.850 L 284.400 158.850 L 284.400 175.350 L 258.800 175.350 L 258.800 158.850 Z " transform="matrix(0.25415128469467163, 0, 0, 0.18400651216506958, -17.9, -17.4)"/>
  <path id="ID0.19617622485384345" fill="#666666" stroke="#000000" stroke-width="2" d="M 290.900 163.300 L 313.650 163.300 L 313.650 173.500 L 290.900 173.500 L 290.900 163.300 Z " transform="matrix(0.493111252784729, 0, 0, 0.4015813171863556, -58.05, -54.5)"/>
  <path id="ID0.7695426535792649" fill="#01F94F" stroke="#01F94F" stroke-width="2" stroke-linecap="round" d="M 194.400 178.450 C 194.600 175.975 192.537 170.327 193.400 171.150 C 194.628 172.317 198.722 178.516 198.950 182.900 C 199.118 186.135 193.445 188.406 194.400 191.500 C 195.441 194.858 203.502 197.074 203.050 197.100 C 202.762 197.155 192.879 195.824 191 191.875 C 189.002 187.676 193.789 182.984 194.400 178.450 Z " transform="matrix(-0.984821081161499, 0.17357243597507477, -0.17357243597507477, -0.984821081161499, 264.8, 163.95)"/>
  <path id="ID0.6499683316797018" fill="none" stroke="#000000" stroke-width="2" d="M 240.700 155.600 C 242.368 155.326 243.831 157.095 245.400 157.450 C 246.795 157.765 248.428 157.640 249.700 157.600 C 250.443 157.549 251.005 156.476 251.800 156.750 C 252.387 156.920 251.700 157.379 252.700 158.350 C 254.172 159.680 256.538 159.894 257.400 162.100 C 258.424 164.825 257.032 167.895 257.400 170.850 C 257.779 173.815 260.310 176.180 259.850 179.500 C 259.041 184.608 256.201 189.291 253.058 193.356 C 249.985 197.332 246.119 200.887 241.700 203.250 C 240.583 203.842 241.642 200.684 241.100 199.500 C 240.894 199.150 240.154 198.992 239.750 199.250 C 238.433 200.125 238.003 202.958 236.550 202.750 C 234.874 202.500 234.728 199.680 233.400 198.600 C 231.062 196.702 228.313 195.312 225.700 193.850 C 222.984 192.330 219.492 191.808 217.300 189.750 C 216.618 189.107 220.229 189.300 219.900 188.450 C 218.838 185.866 215.266 184.845 214.300 182.350 C 213.925 181.380 216.354 181.261 216.700 180.350 C 217.237 178.951 217.302 178.729 216.900 175.850 C 216.748 174.537 215.632 173.246 216.300 172.100 C 217.034 170.838 219.067 170.936 220.200 170.100 C 220.871 169.608 221.646 168.999 221.700 168.100 C 221.743 167.290 219.706 166.699 220.300 166.100 C 221.494 164.910 223.758 165.335 225.300 164.600 C 228.746 162.989 232.050 161.147 235.400 159.250 C 237.264 158.193 238.393 156.019 240.700 155.600 Z " transform="matrix(1, 0, 0, 1, -212.6, -153.75)"/>
  <path id="ID0.3022830719128251" fill="#666666" stroke="#000000" stroke-width="1" d="M 278.700 172 L 297.850 172 L 297.850 174.500 L 278.700 174.500 L 278.700 172 Z " transform="matrix(1, 0, 0, 1, -213.05, -154.7)"/>
</svg>