<svg version="1.1" width="86" height="43" xmlns="http://www.w3.org/2000/svg" xmlns:xlink="http://www.w3.org/1999/xlink">
  <!-- Exported by Scratch - http://scratch.mit.edu/ -->
  <path id="ID0.8552132230252028" fill="#666666" stroke="#000000" stroke-width="2" d="M 248.500 163.500 L 286.250 163.500 L 286.250 171.250 L 248.500 171.250 L 248.500 163.500 Z " transform="matrix(1.4339622259140015, 0, 0, 0.7835051417350769, -326.1, -121.8)"/>
  <path id="ID0.6863454296253622" fill="#FFCCCC" stroke="#000000" stroke-width="2" d="M 263.950 171.400 L 268.150 167.150 L 270.750 170.500 L 270.750 191.500 L 263.250 191.500 L 263.950 171.400 Z " transform="matrix(0.6554728746414185, 0.7552187442779541, -0.8780851364135742, 0.7621116042137146, 28.05, -317.55)"/>
  <path id="ID0.05429223272949457" fill="#003FFF" stroke="#000000" stroke-width="2" stroke-linecap="round" d="M 240.250 166.250 C 245.561 166.250 250.373 168.407 253.858 171.892 C 257.343 175.377 259.500 180.189 259.500 185.500 C 259.500 190.811 257.343 195.623 253.858 199.108 C 250.373 202.593 245.561 204.750 240.250 204.750 C 234.939 204.750 230.127 202.593 226.642 199.108 C 223.157 195.623 221 190.811 221 185.500 C 221 180.189 223.157 175.377 226.642 171.892 C 230.127 168.407 234.939 166.250 240.250 166.250 Z " transform="matrix(1, 0, 0, 1, -219.25, -164.5)"/>
  <path id="ID0.7695426535792649" fill="#001966" stroke="#001966" stroke-width="2" stroke-linecap="round" d="M 200.875 182 C 203.599 182 206.068 183.107 207.856 184.894 C 209.643 186.682 209.396 189.755 210.750 191.875 C 212.441 194.528 218.515 199.611 217 199.500 C 214.930 199.136 206.670 194.196 202.250 190.750 C 200.693 189.538 201.353 185.387 199.500 185.500 C 195.919 185.930 192.179 192.080 191 191.875 C 189.901 191.680 192.107 186.682 193.894 184.894 C 195.682 183.107 198.151 182 200.875 182 Z " transform="matrix(1, 0, 0, 1, -179.75, -178)"/>
  <path id="ID0.7695426535792649" fill="#0033CC" stroke="#0033CC" stroke-width="2" stroke-linecap="round" d="M 193.894 184.894 C 203.574 180.398 200.329 175.062 201.850 175.150 C 203.046 175.168 205.743 181.907 204.800 184.450 C 204.236 185.971 200.754 181.814 198.950 182.900 C 196.195 184.582 194.201 188.283 194.400 191.500 C 194.529 193.517 200.751 193.731 200.100 193.800 C 199.349 193.880 192.887 194.409 191 191.875 C 189.551 189.914 192.082 186.598 193.894 184.894 Z " transform="matrix(-0.984821081161499, 0.17357243597507477, -0.17357243597507477, -0.984821081161499, 246.75, 164.3)"/>
  <path id="ID0.7695426535792649" fill="#001966" stroke="#001966" stroke-width="2" stroke-linecap="round" d="M 201.600 196.750 C 200.598 195.860 199.819 192.503 201.100 192.750 C 206.849 193.758 214.186 197.029 217 199.500 C 218.225 200.581 212.190 200.438 209.850 200 C 206.872 199.423 203.807 198.702 201.600 196.750 Z " transform="matrix(1, 0, 0, 1, -187.35, -165)"/>
  <path id="ID0.7695426535792649" fill="#0033CC" stroke="#0033CC" stroke-width="2" stroke-linecap="round" d="M 200.875 182 C 203.346 182.476 206.068 183.107 207.856 184.894 C 209.643 186.682 211.551 191.340 210.750 191.875 C 209.951 192.408 206.486 187.883 203.800 187.200 C 200.985 188.999 201.176 185.709 199.500 185.500 C 193.596 184.815 183.467 187.366 181.500 186.450 C 179.953 185.730 187.586 182.351 191 181.550 C 194.261 180.818 197.743 181.394 200.875 182 Z " transform="matrix(-0.2872161269187927, 0.9578657746315002, -0.9578657746315002, -0.2872161269187927, 267.75, -108.8)"/>
  <path id="ID0.7695426535792649" fill="#001966" stroke="#001966" stroke-width="2" stroke-linecap="round" d="M 200.875 182 C 204.639 190.853 196.226 201.454 195.350 201.500 C 195.213 200.578 200.434 187.514 199.500 185.500 C 198.482 184.371 194.867 191.914 193.350 191.750 C 192.118 191.617 192.455 186.698 193.894 184.894 C 195.461 182.927 198.903 181.386 200.875 182 Z " transform="matrix(1, 0, 0, 1, -189.6, -172.25)"/>
  <path id="ID0.7695426535792649" fill="#001966" stroke="#001966" stroke-width="2" stroke-linecap="round" d="M 200.875 182 C 203.346 182.476 206.068 183.107 207.856 184.894 C 209.643 186.682 211.551 191.340 210.750 191.875 C 209.951 192.408 206.486 187.883 203.800 187.200 C 200.985 188.999 201.176 185.709 199.500 185.500 C 193.596 184.815 183.467 187.366 181.500 186.450 C 179.953 185.730 187.586 182.351 191 181.550 C 194.261 180.818 197.743 181.394 200.875 182 Z " transform="matrix(-0.8117372393608093, 0.5840227603912354, -0.5840227603912354, -0.8117372393608093, 289.3, 63.6)"/>
  <path id="ID0.7695426535792649" fill="#003FFF" stroke="#003FFF" stroke-width="2" stroke-linecap="round" d="M 188.550 188.100 C 189.747 186.176 193.238 187.354 194.800 185.900 C 197.877 182.836 199.104 175.439 201.850 175.150 C 204.012 174.931 205.743 181.907 204.800 184.450 C 204.236 185.971 200.754 181.814 198.950 182.900 C 196.195 184.582 196.348 188.916 194.400 191.500 C 192.514 193.994 187.742 197.724 187.100 197.750 C 186.688 197.841 190.630 194.191 191 191.875 C 191.239 190.394 187.777 189.341 188.550 188.100 Z " transform="matrix(-0.984821081161499, 0.17357243597507477, -0.17357243597507477, -0.984821081161499, 248.35, 175.8)"/>
  <path id="ID0.05429223272949457" fill="none" stroke="#000000" stroke-width="2" stroke-linecap="round" d="M 240.250 166.250 C 245.561 166.250 250.373 168.407 253.858 171.892 C 257.343 175.377 259.500 180.189 259.500 185.500 C 259.500 190.811 257.343 195.623 253.858 199.108 C 250.373 202.593 245.561 204.750 240.250 204.750 C 234.939 204.750 230.127 202.593 226.642 199.108 C 223.157 195.623 221 190.811 221 185.500 C 221 180.189 223.157 175.377 226.642 171.892 C 230.127 168.407 234.939 166.250 240.250 166.250 Z " transform="matrix(1, 0, 0, 1, -219.65, -164.65)"/>
  <path id="ID0.5103327953256667" fill="#7F7F7F" stroke="#000000" stroke-width="2" d="M 258.800 158.850 L 284.400 158.850 L 284.400 175.350 L 258.800 175.350 L 258.800 158.850 Z " transform="matrix(0.25415128469467163, 0, 0, 0.18400651216506958, -23.9, -21.4)"/>
</svg>